<?xml version="1.0" standalone="no"?>
<!DOCTYPE svg PUBLIC "-//W3C//DTD SVG 20010904//EN"
 "http://www.w3.org/TR/2001/REC-SVG-20010904/DTD/svg10.dtd">
<svg version="1.0" xmlns="http://www.w3.org/2000/svg"
 width="1536.000000pt" height="1024.000000pt" viewBox="0 0 1536.000000 1024.000000"
 preserveAspectRatio="xMidYMid meet">

<g transform="translate(0.000000,1024.000000) scale(0.100000,-0.100000)"
fill="#000000" stroke="none">
<path d="M7707 8059 c-120 -28 -212 -129 -262 -290 l-18 -56 -48 33 c-115 77
-312 51 -398 -53 -58 -70 -85 -150 -101 -298 -11 -96 -47 -1181 -52 -1532 -2
-117 -5 -209 -8 -205 -3 4 -12 25 -19 47 -30 87 -105 254 -149 329 -79 133
-204 245 -327 292 -75 28 -212 26 -283 -5 -88 -39 -152 -132 -152 -221 0 -86
29 -176 115 -365 104 -226 205 -480 310 -780 86 -244 124 -332 192 -450 80
-137 179 -259 324 -398 l140 -133 -7 -230 c-4 -157 -3 -242 5 -269 41 -150
320 -236 821 -251 364 -12 753 37 905 113 49 25 105 85 115 125 6 20 9 136 8
266 l-2 229 85 106 c179 223 273 476 310 837 23 222 18 735 -16 1520 -28 644
-42 727 -136 834 -74 85 -231 118 -327 69 -29 -14 -44 -17 -47 -10 -2 7 -6 64
-9 127 -7 130 -17 180 -48 247 -80 170 -296 223 -461 112 l-41 -28 -16 53
c-57 183 -220 278 -403 235z m171 -123 c55 -29 99 -92 121 -173 8 -29 13 -286
16 -825 4 -701 9 -846 29 -865 13 -13 71 -3 83 13 10 14 13 164 13 714 0 451
4 717 11 756 21 116 89 176 200 176 69 0 113 -22 146 -71 49 -72 48 -58 48
-893 0 -685 2 -789 15 -802 27 -25 56 -28 81 -7 l24 19 6 544 c4 405 9 553 18
583 25 76 119 133 195 118 43 -9 110 -81 129 -139 32 -98 46 -294 71 -964 38
-995 25 -1286 -65 -1575 -57 -182 -128 -306 -272 -474 -51 -60 -73 -125 -63
-194 3 -23 6 -112 7 -197 2 -125 -1 -161 -14 -186 -57 -111 -561 -180 -1047
-144 -297 22 -486 80 -532 164 -9 15 -12 84 -10 236 1 118 -2 233 -7 254 -8
32 -35 64 -154 177 -270 258 -352 397 -517 874 -96 279 -161 444 -259 654
-138 296 -158 378 -108 452 35 53 79 71 159 65 88 -6 162 -43 232 -115 96 -98
136 -162 223 -361 114 -261 145 -291 374 -355 161 -46 324 -125 447 -217 152
-115 252 -232 332 -391 51 -102 66 -116 104 -99 38 17 34 66 -12 166 -78 163
-239 342 -412 456 -148 97 -250 142 -462 205 l-88 26 0 82 c0 45 5 190 10 322
5 132 16 474 24 760 18 592 28 738 57 823 25 76 74 126 136 142 100 25 184
-14 230 -107 l28 -58 1 -704 1 -705 23 -18 c24 -20 47 -23 69 -9 24 16 30 177
31 868 0 415 4 691 11 740 18 130 69 220 143 254 49 22 136 25 174 5z"/>
<path d="M6826 2583 c-8 -19 -6 -545 1 -574 7 -24 27 -30 73 -23 l39 6 3 102
c2 78 6 100 16 98 29 -6 125 18 153 39 46 32 69 88 69 163 0 76 -11 110 -48
150 -43 45 -80 56 -196 56 -89 0 -105 -2 -110 -17z m197 -104 c25 -11 47 -47
47 -75 0 -35 -32 -83 -62 -93 -66 -23 -68 -21 -68 84 l0 95 30 0 c16 0 40 -5
53 -11z"/>
<path d="M7346 2592 c-3 -5 -9 -26 -15 -48 -5 -21 -39 -153 -75 -293 -73 -277
-73 -271 -4 -271 42 0 48 6 63 75 l12 50 78 0 78 0 16 -60 c17 -65 27 -72 87
-60 42 7 42 16 10 133 -13 48 -45 170 -72 272 -26 102 -52 191 -57 198 -11 13
-113 17 -121 4z m88 -267 c14 -60 23 -111 21 -114 -7 -6 -105 -11 -105 -4 0 3
6 31 14 62 8 31 20 82 26 114 6 32 14 57 16 55 2 -3 15 -53 28 -113z"/>
<path d="M7710 2296 l0 -304 46 -7 c26 -3 50 -3 55 2 4 4 10 53 11 107 l3 98
45 4 c61 6 130 42 157 82 42 63 41 181 -1 244 -37 57 -94 78 -213 78 l-103 0
0 -304z m205 169 c55 -55 12 -165 -64 -165 l-31 0 0 95 0 95 35 0 c25 0 44 -8
60 -25z"/>
<path d="M8145 2587 c-3 -7 -4 -145 -3 -307 l3 -295 105 -3 c58 -2 124 0 148
3 l43 6 -3 47 -3 47 -92 3 -93 3 0 74 0 74 83 3 82 3 3 48 3 47 -85 0 -86 0 0
75 0 75 89 0 89 0 3 33 c9 80 14 77 -142 77 -103 0 -141 -3 -144 -13z"/>
<path d="M8545 2587 c-3 -7 -4 -144 -3 -306 l3 -294 50 0 50 0 3 117 c2 87 6
117 15 114 7 -2 38 -56 69 -121 l57 -117 51 0 c36 0 52 4 57 15 3 9 -18 64
-47 123 l-51 107 24 20 c48 39 67 84 67 160 0 91 -26 141 -90 173 -37 18 -60
22 -147 22 -74 0 -105 -4 -108 -13z m178 -101 c20 -5 33 -17 43 -42 28 -66 -8
-131 -76 -136 l-35 -3 -3 84 c-3 97 1 114 25 108 10 -3 31 -8 46 -11z"/>
</g>
</svg>
