<?xml version="1.0" standalone="no"?>
<!DOCTYPE svg PUBLIC "-//W3C//DTD SVG 20010904//EN"
 "http://www.w3.org/TR/2001/REC-SVG-20010904/DTD/svg10.dtd">
<svg version="1.0" xmlns="http://www.w3.org/2000/svg"
 width="1536.000000pt" height="1024.000000pt" viewBox="0 0 1536.000000 1024.000000"
 preserveAspectRatio="xMidYMid meet">

<g transform="translate(0.000000,1024.000000) scale(0.100000,-0.100000)"
fill="#000000" stroke="none">
<path d="M7165 7970 c-502 -92 -890 -323 -1164 -693 -57 -78 -173 -283 -206
-364 -57 -144 -118 -450 -102 -515 4 -15 17 -33 29 -39 19 -10 835 -119 894
-119 49 0 64 28 93 176 45 224 112 358 243 478 124 116 202 156 358 183 102
18 294 13 385 -11 151 -40 312 -159 387 -286 105 -178 104 -502 -2 -713 -57
-115 -162 -242 -450 -542 -276 -289 -380 -406 -450 -510 -100 -150 -152 -267
-192 -435 -15 -67 -21 -135 -25 -317 -6 -269 -3 -285 61 -314 37 -17 72 -19
403 -19 307 0 369 2 402 16 62 25 71 54 71 236 0 173 15 249 75 373 62 130
148 229 515 595 196 195 387 393 424 440 124 156 243 388 286 555 44 172 52
487 16 653 -51 235 -154 432 -336 639 -222 253 -539 422 -940 502 -162 32
-259 41 -470 46 -166 4 -212 2 -305 -15z"/>
<path d="M7282 3440 c-104 -27 -187 -75 -262 -150 -121 -120 -170 -252 -170
-455 0 -196 43 -309 165 -431 283 -285 779 -206 951 153 96 200 80 465 -40
646 -137 206 -397 301 -644 237z"/>
</g>
</svg>
