<?xml version="1.0" standalone="no"?>
<!DOCTYPE svg PUBLIC "-//W3C//DTD SVG 20010904//EN"
 "http://www.w3.org/TR/2001/REC-SVG-20010904/DTD/svg10.dtd">
<svg version="1.0" xmlns="http://www.w3.org/2000/svg"
 width="1536.000000pt" height="1024.000000pt" viewBox="0 0 1536.000000 1024.000000"
 preserveAspectRatio="xMidYMid meet">

<g transform="translate(0.000000,1024.000000) scale(0.100000,-0.100000)"
fill="#000000" stroke="none">
<path d="M7363 7485 c-111 -30 -204 -99 -247 -184 -9 -17 -19 -31 -22 -31 -2
0 -21 8 -42 19 -56 28 -87 33 -202 32 -165 -1 -270 -37 -369 -127 -100 -91
-141 -200 -145 -388 l-2 -119 -45 -12 c-106 -26 -221 -125 -280 -240 -89 -172
-128 -371 -136 -690 -4 -175 -2 -239 11 -311 30 -173 103 -334 223 -491 97
-128 292 -341 435 -475 74 -70 148 -146 163 -168 l28 -40 -9 -193 c-5 -105 -9
-250 -9 -322 0 -116 3 -135 23 -177 45 -91 136 -147 326 -202 87 -26 207 -51
281 -60 184 -22 324 -28 525 -23 544 15 889 112 961 272 22 47 24 185 9 504
-6 139 -6 200 2 215 6 12 40 53 76 91 178 192 265 351 332 611 60 230 65 300
64 834 -1 502 -14 804 -40 950 -20 113 -63 201 -134 271 -116 113 -256 144
-404 88 -28 -10 -51 -18 -52 -16 -1 1 -14 26 -28 55 -71 141 -217 222 -401
222 -103 0 -165 -19 -240 -71 -54 -38 -60 -40 -70 -24 -53 92 -129 154 -233
191 -56 20 -86 24 -182 23 -66 0 -137 -6 -167 -14z m313 -125 c76 -26 122 -64
159 -131 l30 -54 0 -575 c0 -532 -1 -579 -18 -628 -32 -92 -103 -143 -225
-163 -86 -14 -188 4 -292 52 l-70 32 48 22 c71 33 175 135 211 206 64 128 79
316 34 404 -24 46 -64 86 -109 108 -37 19 -139 37 -206 37 l-48 0 0 255 c0
282 3 301 63 363 63 66 136 90 268 91 70 1 111 -4 155 -19z m698 -114 c96 -29
158 -92 192 -195 15 -46 15 -73 5 -273 -22 -414 -48 -669 -78 -762 -22 -68
-85 -130 -154 -150 -133 -40 -276 5 -330 104 -19 33 -26 1033 -9 1117 17 79
74 137 160 164 42 13 164 10 214 -5z m-1389 -62 c78 -40 80 -48 83 -295 l3
-220 -103 5 c-57 3 -193 8 -303 12 -110 3 -202 8 -205 11 -3 2 -5 48 -5 101 0
137 28 224 94 290 52 54 129 98 195 112 70 15 197 6 241 -16z m2011 -190 c151
-93 199 -298 152 -649 -37 -277 -164 -455 -327 -455 -60 0 -129 23 -170 58
l-33 27 16 125 c18 140 30 292 46 580 6 107 15 211 20 230 29 109 184 153 296
84z m-1911 -434 c227 -9 254 -12 294 -33 55 -27 81 -73 81 -142 0 -115 -56
-243 -139 -316 -64 -57 -138 -89 -247 -107 -87 -14 -105 -14 -205 1 -68 10
-137 28 -181 47 -85 35 -109 37 -132 11 -25 -28 -13 -55 40 -91 47 -33 162
-80 194 -80 27 0 25 -23 -6 -90 -37 -81 -91 -146 -167 -202 -61 -46 -68 -54
-65 -82 3 -27 7 -31 35 -34 99 -10 286 184 334 346 7 23 15 42 18 42 3 0 58
-7 122 -15 267 -33 520 -180 679 -395 82 -111 141 -251 165 -393 8 -47 41 -67
81 -48 26 12 27 13 20 80 -18 195 -144 430 -311 578 -37 33 -53 54 -44 56 129
34 220 82 259 137 l21 30 47 -39 c59 -50 103 -68 192 -81 85 -12 193 1 251 31
23 11 60 38 84 60 23 21 45 39 49 39 4 0 36 -17 71 -39 84 -50 167 -68 250
-54 118 20 188 72 270 197 l50 77 8 -58 c10 -72 2 -458 -13 -613 -44 -451
-137 -687 -368 -931 -124 -131 -117 -98 -102 -473 14 -366 13 -372 -60 -425
-128 -92 -441 -144 -870 -144 -393 0 -682 47 -849 139 -100 54 -97 36 -92 415
3 316 2 330 -18 372 -14 28 -87 107 -223 237 -398 385 -554 612 -603 879 -22
119 -16 443 10 591 59 326 152 478 324 527 50 14 267 12 746 -7z"/>
<path d="M7403 2611 c-95 -44 -147 -203 -124 -380 20 -154 90 -231 209 -231
112 0 183 78 201 220 10 78 0 227 -19 275 -43 113 -161 164 -267 116z m139
-124 c42 -54 51 -252 14 -329 -23 -49 -66 -67 -102 -43 -44 29 -59 77 -58 200
0 84 4 117 17 142 35 65 91 78 129 30z"/>
<path d="M7889 2607 c-36 -19 -50 -36 -79 -92 -33 -64 -35 -74 -39 -186 -4
-137 12 -204 62 -264 38 -46 81 -65 149 -65 64 0 123 31 151 77 22 38 11 69
-29 79 -19 5 -32 0 -53 -20 -54 -52 -118 -29 -152 54 -22 55 -19 215 6 265 26
52 68 74 104 54 14 -8 30 -25 36 -37 12 -26 17 -27 60 -6 43 20 47 32 25 81
-34 77 -152 107 -241 60z"/>
<path d="M6847 2604 c-6 -25 -7 -532 0 -566 6 -33 23 -40 74 -32 l39 7 0 113
c0 88 3 114 13 114 7 0 33 -44 57 -97 63 -141 65 -143 115 -143 24 0 50 3 58
6 18 6 12 23 -55 161 l-40 83 32 27 c43 36 60 79 60 155 0 76 -28 132 -80 162
-29 17 -56 22 -152 25 -106 3 -116 1 -121 -15z m219 -115 c13 -14 19 -36 19
-65 0 -54 -32 -89 -87 -97 l-38 -6 0 95 0 94 43 0 c32 0 49 -6 63 -21z"/>
<path d="M8230 2316 l0 -304 51 -4 c28 -1 53 0 55 3 2 3 4 49 5 101 1 53 7
108 13 123 11 27 13 24 68 -87 30 -63 63 -121 71 -130 11 -11 31 -15 67 -13
28 1 53 5 57 8 3 3 -26 63 -63 134 -111 206 -108 172 -20 319 42 70 76 133 76
141 0 11 -14 13 -62 11 l-61 -3 -67 -117 c-37 -65 -70 -114 -74 -111 -3 4 -6
57 -6 120 l0 113 -55 0 -55 0 0 -304z"/>
</g>
</svg>
