<?xml version="1.0" standalone="no"?>
<!DOCTYPE svg PUBLIC "-//W3C//DTD SVG 20010904//EN"
 "http://www.w3.org/TR/2001/REC-SVG-20010904/DTD/svg10.dtd">
<svg version="1.0" xmlns="http://www.w3.org/2000/svg"
 width="1536.000000pt" height="1024.000000pt" viewBox="0 0 1536.000000 1024.000000"
 preserveAspectRatio="xMidYMid meet">

<g transform="translate(0.000000,1024.000000) scale(0.100000,-0.100000)"
fill="#000000" stroke="none">
<path d="M7270 8251 c-127 -41 -205 -141 -230 -294 -19 -108 4 -284 66 -526
14 -53 43 -166 65 -251 72 -276 190 -714 195 -722 7 -11 2 -10 -42 8 -60 25
-197 15 -268 -20 -101 -50 -202 -165 -208 -238 -2 -23 -5 -24 -88 -24 -70 0
-95 -4 -142 -26 -117 -54 -194 -158 -218 -296 -11 -57 -10 -101 3 -253 9 -101
19 -254 22 -339 20 -512 137 -834 408 -1130 l97 -105 0 -206 c0 -296 16 -337
163 -409 160 -78 399 -119 702 -120 468 0 841 112 884 267 6 22 11 140 11 274
l0 235 75 90 c190 225 287 418 347 689 17 78 22 135 22 260 1 155 0 163 -31
252 -18 50 -55 137 -82 192 -52 103 -111 285 -132 406 -19 111 -6 407 27 595
26 155 139 714 190 950 22 99 28 152 28 255 l1 130 -36 65 c-102 185 -332 215
-484 63 -108 -108 -188 -360 -325 -1028 -60 -298 -104 -484 -122 -517 -4 -10
-17 -22 -28 -28 -16 -9 -22 -6 -33 17 -15 29 -70 223 -152 538 -189 725 -268
1004 -303 1069 -37 67 -99 129 -158 156 -53 24 -179 36 -224 21z m147 -122
c42 -16 91 -67 123 -129 42 -83 46 -98 276 -955 130 -486 149 -546 186 -617
41 -77 67 -99 124 -106 127 -14 166 69 264 558 102 509 190 850 246 962 30 58
78 114 115 134 43 22 135 18 175 -7 52 -32 86 -98 92 -178 5 -71 -9 -150 -93
-536 -105 -481 -158 -794 -171 -1000 -7 -121 12 -288 45 -395 11 -33 16 -60
12 -60 -4 0 -18 12 -32 26 -38 42 -156 127 -239 172 -95 52 -162 67 -385 87
-99 9 -220 23 -270 31 -112 19 -219 21 -269 4 -20 -6 -38 -10 -40 -8 -1 1 -14
53 -29 113 -15 61 -70 274 -122 475 -149 566 -253 994 -266 1086 -15 106 -1
202 40 267 46 72 141 105 218 76z m-74 -1797 c51 -35 84 -93 109 -197 21 -85
21 -87 4 -175 -22 -108 -18 -203 13 -283 29 -74 118 -171 195 -212 63 -34 66
-43 40 -118 -21 -62 -96 -130 -160 -146 -38 -10 -56 -9 -103 4 -89 26 -151 97
-239 275 -66 132 -183 432 -218 555 -30 108 -12 197 53 256 85 79 224 98 306
41z m-524 -289 c45 -34 61 -66 130 -263 97 -274 202 -491 278 -572 33 -35 26
-64 -26 -111 -68 -62 -168 -74 -258 -33 -103 48 -198 160 -323 377 -87 152
-112 227 -112 332 -1 66 4 86 30 140 36 73 84 123 138 143 48 17 109 12 143
-13z m1086 -42 c88 -11 201 -23 250 -26 119 -9 224 -29 282 -55 178 -78 420
-314 512 -499 58 -115 66 -155 65 -306 -2 -325 -109 -588 -355 -881 -51 -60
-82 -107 -89 -134 -7 -26 -10 -125 -8 -269 3 -261 6 -251 -85 -298 -307 -155
-1125 -147 -1358 13 -60 41 -63 55 -64 294 -1 160 -4 221 -14 240 -8 14 -47
60 -87 102 -263 277 -381 581 -410 1058 l-6 105 36 -59 c106 -172 204 -275
316 -329 58 -28 75 -32 155 -32 80 0 97 3 155 31 36 18 91 55 122 83 56 51 57
51 100 41 151 -34 298 34 368 171 16 31 34 78 41 103 9 35 15 45 28 42 63 -18
149 -29 223 -30 l86 -1 -36 -29 c-72 -56 -192 -189 -246 -269 -98 -147 -143
-287 -152 -466 -6 -136 4 -167 50 -164 16 1 31 5 34 8 3 2 11 58 19 122 7 65
20 145 28 178 22 89 116 270 180 348 47 57 159 157 175 157 3 0 18 -20 33 -45
44 -69 114 -127 151 -123 23 2 33 10 40 30 9 25 5 33 -43 83 -59 62 -101 146
-109 214 -8 77 -15 81 -155 74 -94 -4 -142 -2 -207 11 -165 34 -296 117 -338
214 -57 133 -31 257 63 298 40 18 64 17 250 -5z"/>
<path d="M6447 2646 c-76 -27 -107 -76 -107 -164 0 -75 33 -124 117 -175 74
-45 106 -79 106 -113 0 -56 -64 -76 -135 -43 l-50 23 -25 -28 c-33 -38 -26
-66 22 -93 51 -29 162 -32 215 -5 68 34 103 126 81 209 -16 58 -43 87 -121
133 -96 56 -118 91 -85 135 20 26 73 25 112 -3 38 -27 59 -28 73 -3 50 94 -75
172 -203 127z"/>
<path d="M6880 2644 c-94 -41 -140 -139 -140 -304 0 -199 74 -310 208 -310 64
0 110 18 146 56 36 39 41 62 20 85 -23 26 -57 24 -92 -6 -39 -32 -91 -34 -119
-2 -30 32 -43 89 -43 191 0 70 5 99 21 132 35 72 104 79 143 13 l17 -29 38 20
c46 23 55 42 37 78 -42 81 -147 115 -236 76z"/>
<path d="M7503 2640 c-70 -31 -106 -116 -84 -198 15 -54 44 -88 110 -130 102
-63 131 -106 103 -150 -16 -25 -71 -32 -116 -16 -73 27 -73 27 -91 1 -41 -64
9 -110 123 -115 129 -5 195 44 209 156 9 83 -21 132 -123 198 -46 29 -88 63
-94 74 -18 33 -8 63 25 79 27 13 33 12 83 -15 l54 -29 19 24 c37 45 19 93 -44
122 -54 24 -121 24 -174 -1z"/>
<path d="M7939 2651 c-75 -24 -119 -87 -119 -168 0 -74 25 -110 122 -175 97
-65 121 -102 93 -145 -23 -35 -59 -39 -123 -13 l-55 23 -19 -23 c-25 -31 -19
-68 15 -94 42 -31 160 -35 215 -7 65 33 87 73 87 156 0 89 -18 116 -126 186
-78 51 -95 74 -87 116 2 10 15 24 30 31 22 10 33 10 67 -4 23 -9 41 -20 41
-25 0 -5 9 -9 21 -9 24 0 51 56 42 88 -12 48 -134 86 -204 63z"/>
<path d="M8382 2653 c-43 -8 -108 -83 -126 -143 -53 -178 -15 -389 81 -455 30
-20 50 -25 96 -25 134 0 201 83 214 266 18 251 -86 391 -265 357z m109 -130
c36 -31 53 -178 35 -289 -15 -88 -94 -130 -137 -73 -43 56 -52 267 -15 337 27
51 76 62 117 25z"/>
<path d="M9282 2647 c-100 -38 -134 -147 -79 -254 11 -19 50 -55 101 -90 97
-65 115 -90 98 -128 -22 -47 -89 -54 -155 -16 -28 16 -29 15 -53 -13 -31 -35
-28 -62 9 -90 24 -18 43 -21 121 -21 84 0 96 3 133 27 58 38 81 100 65 176
-14 67 -40 97 -138 158 -79 49 -104 86 -85 123 19 35 59 38 117 6 28 -15 56
-25 62 -21 20 12 34 73 22 95 -25 47 -149 75 -218 48z"/>
<path d="M7210 2346 l0 -304 24 -4 c13 -3 38 -3 55 0 l31 4 0 304 0 304 -55 0
-55 0 0 -304z"/>
<path d="M8748 2644 c-5 -4 -8 -141 -8 -305 0 -331 -4 -315 71 -303 37 6 39 9
41 43 1 20 3 45 4 56 1 11 2 46 3 77 1 42 4 56 14 53 6 -3 37 -56 67 -118 l55
-112 58 -3 c47 -2 57 0 57 13 0 9 -25 65 -54 125 l-55 108 34 26 c95 73 81
276 -23 326 -30 15 -252 27 -264 14z m209 -126 c17 -16 23 -32 23 -65 0 -58
-33 -93 -88 -93 l-38 0 -1 83 c0 45 1 85 4 90 10 16 77 7 100 -15z"/>
</g>
</svg>
